<svg width="38" height="40" viewBox="0 0 38 40" fill="none" xmlns="http://www.w3.org/2000/svg">
<path d="M36.6179 34.5826L29.4622 26.7943C29.1392 26.4427 28.7014 26.2474 28.242 26.2474H27.0721C29.0531 23.4899 30.2301 20.0215 30.2301 16.2484C30.2301 7.27273 23.5481 0 15.3013 0C7.05463 0 0.372559 7.27273 0.372559 16.2484C0.372559 25.2241 7.05463 32.4968 15.3013 32.4968C18.768 32.4968 21.9547 31.2157 24.4883 29.0597V30.333C24.4883 30.8329 24.6677 31.3094 24.9907 31.661L32.1465 39.4493C32.8211 40.1836 33.9121 40.1836 34.5796 39.4493L36.6108 37.2386C37.2854 36.5042 37.2854 35.3169 36.6179 34.5826ZM15.3013 26.2474C10.227 26.2474 6.1144 21.7791 6.1144 16.2484C6.1144 10.7255 10.2198 6.24939 15.3013 6.24939C20.3757 6.24939 24.4883 10.7177 24.4883 16.2484C24.4883 21.7713 20.3829 26.2474 15.3013 26.2474Z" fill="#273F7D"/>
</svg>
