<svg width="29" height="25" viewBox="0 0 29 25" fill="none" xmlns="http://www.w3.org/2000/svg">
<path d="M28.275 10.1562C26.6734 10.1562 25.375 8.85787 25.375 7.25625V7.03125C25.375 6.60156 25.0487 6.25 24.65 6.25H23.2C22.8013 6.25 22.475 6.60156 22.475 7.03125V7.25625C22.475 8.85788 21.1766 10.1562 19.575 10.1562C19.1763 10.1562 18.85 10.5078 18.85 10.9375V12.5C18.85 12.9297 19.1763 13.2812 19.575 13.2812C21.1766 13.2812 22.475 14.5796 22.475 16.1813V16.4062C22.475 16.8359 22.8013 17.1875 23.2 17.1875H24.65C25.0487 17.1875 25.375 16.8359 25.375 16.4062V16.1813C25.375 14.5796 26.6734 13.2812 28.275 13.2812C28.6738 13.2812 29 12.9297 29 12.5V10.9375C29 10.5078 28.6738 10.1562 28.275 10.1562ZM10.15 12.5C13.3536 12.5 15.95 9.70215 15.95 6.25C15.95 2.79785 13.3536 0 10.15 0C6.94641 0 4.35 2.79785 4.35 6.25C4.35 9.70215 6.94641 12.5 10.15 12.5ZM14.21 14.0625C13.7122 14.0625 13.2254 14.1886 12.7598 14.3645C11.9422 14.6734 11.0638 14.8438 10.15 14.8438C9.2356 14.8438 8.35941 14.6731 7.54051 14.3639C7.0748 14.188 6.58781 14.0625 6.09 14.0625C2.72781 14.0625 0 17.002 0 20.625V22.6562C0 23.9502 0.974219 25 2.175 25H18.125C19.3258 25 20.3 23.9502 20.3 22.6562V20.625C20.3 17.002 17.5722 14.0625 14.21 14.0625Z" fill="#FAFAFA"/>
</svg>
