<svg width="21" height="20" viewBox="0 0 21 20" fill="none" xmlns="http://www.w3.org/2000/svg">
<path d="M3.4881 15.5455C3.82574 14.1374 5.09286 13.0909 6.6044 13.0909C8.37423 13.0909 9.80895 14.5256 9.80895 16.2955C9.80895 18.0653 8.37423 19.5 6.6044 19.5C5.09286 19.5 3.82574 18.4535 3.4881 17.0455H1.69531C1.2811 17.0455 0.945312 16.7097 0.945312 16.2955C0.945312 15.8812 1.2811 15.5455 1.69531 15.5455H3.4881ZM10.0336 9C10.3712 7.59199 11.6383 6.54545 13.1499 6.54545C14.9197 6.54545 16.3544 7.98018 16.3544 9.75C16.3544 11.5198 14.9197 12.9545 13.1499 12.9545C11.6383 12.9545 10.3712 11.908 10.0336 10.5H1.69531C1.2811 10.5 0.945312 10.1642 0.945312 9.75C0.945312 9.33579 1.2811 9 1.69531 9H10.0336ZM3.4881 2.45455C3.82574 1.04653 5.09286 0 6.6044 0C8.37423 0 9.80895 1.43472 9.80895 3.20455C9.80895 4.97437 8.37423 6.40909 6.6044 6.40909C5.09286 6.40909 3.82574 5.36256 3.4881 3.95455H1.69531C1.2811 3.95455 0.945312 3.61876 0.945312 3.20455C0.945312 2.79033 1.2811 2.45455 1.69531 2.45455H3.4881ZM12.3317 3.95455C11.9175 3.95455 11.5817 3.61876 11.5817 3.20455C11.5817 2.79033 11.9175 2.45455 12.3317 2.45455H19.6953C20.1095 2.45455 20.4453 2.79033 20.4453 3.20455C20.4453 3.61876 20.1095 3.95455 19.6953 3.95455H12.3317ZM18.8771 10.5C18.4629 10.5 18.1271 10.1642 18.1271 9.75C18.1271 9.33579 18.4629 9 18.8771 9H19.6953C20.1095 9 20.4453 9.33579 20.4453 9.75C20.4453 10.1642 20.1095 10.5 19.6953 10.5H18.8771ZM12.3317 17.0455C11.9175 17.0455 11.5817 16.7097 11.5817 16.2955C11.5817 15.8812 11.9175 15.5455 12.3317 15.5455H19.6953C20.1095 15.5455 20.4453 15.8812 20.4453 16.2955C20.4453 16.7097 20.1095 17.0455 19.6953 17.0455H12.3317ZM6.6044 4.90909C7.5458 4.90909 8.30895 4.14594 8.30895 3.20455C8.30895 2.26315 7.5458 1.5 6.6044 1.5C5.66301 1.5 4.89986 2.26315 4.89986 3.20455C4.89986 4.14594 5.66301 4.90909 6.6044 4.90909ZM13.1499 11.4545C14.0913 11.4545 14.8544 10.6914 14.8544 9.75C14.8544 8.80861 14.0913 8.04545 13.1499 8.04545C12.2085 8.04545 11.4453 8.80861 11.4453 9.75C11.4453 10.6914 12.2085 11.4545 13.1499 11.4545ZM6.6044 18C7.5458 18 8.30895 17.2368 8.30895 16.2955C8.30895 15.3541 7.5458 14.5909 6.6044 14.5909C5.66301 14.5909 4.89986 15.3541 4.89986 16.2955C4.89986 17.2368 5.66301 18 6.6044 18Z" fill="#2B468B"/>
</svg>
