<svg width="26" height="26" viewBox="0 0 26 26" fill="none" xmlns="http://www.w3.org/2000/svg">
<path d="M23.2143 26H2.78571C1.24719 26 0 24.7528 0 23.2143V2.78571C0 1.24719 1.24719 0 2.78571 0H23.2143C24.7528 0 26 1.24719 26 2.78571V23.2143C26 24.7528 24.7528 26 23.2143 26ZM11.3352 20.3091L22.0138 9.6305C22.3764 9.2679 22.3764 8.67994 22.0138 8.31733L20.7006 7.00416C20.338 6.64155 19.75 6.64149 19.3874 7.00416L10.6786 15.7129L6.61265 11.647C6.25004 11.2843 5.66208 11.2843 5.29942 11.647L3.98624 12.9601C3.62363 13.3227 3.62363 13.9107 3.98624 14.2733L10.022 20.309C10.3846 20.6717 10.9725 20.6717 11.3352 20.3091Z" fill="#2B468B"/>
</svg>
