<svg width="25" height="25" viewBox="0 0 25 25" fill="none" xmlns="http://www.w3.org/2000/svg">
<path d="M24.2188 12.3294C24.2188 19.0187 18.7967 24.4388 12.1094 24.4388C5.42202 24.4388 0 19.0187 0 12.3294C0 5.64398 5.42202 0.220001 12.1094 0.220001C18.7967 0.220001 24.2188 5.64398 24.2188 12.3294ZM12.4343 4.22391C9.77334 4.22391 8.07617 5.34485 6.74346 7.33709C6.5708 7.5952 6.62856 7.94329 6.87603 8.13094L8.57031 9.41561C8.82446 9.60833 9.18657 9.56248 9.38403 9.31199C10.2563 8.20565 10.8544 7.56409 12.182 7.56409C13.1795 7.56409 14.4134 8.20609 14.4134 9.17337C14.4134 9.90462 13.8097 10.2802 12.8248 10.8324C11.6762 11.4763 10.1562 12.2777 10.1562 14.2825V14.4778C10.1562 14.8014 10.4186 15.0638 10.7422 15.0638H13.4766C13.8001 15.0638 14.0625 14.8014 14.0625 14.4778V14.4127C14.0625 13.023 18.1243 12.9651 18.1243 9.20438C18.1243 6.37225 15.1866 4.22391 12.4343 4.22391ZM12.1094 16.3333C10.8708 16.3333 9.86328 17.3409 9.86328 18.5794C9.86328 19.8179 10.8708 20.8255 12.1094 20.8255C13.3479 20.8255 14.3555 19.8179 14.3555 18.5794C14.3555 17.3409 13.3479 16.3333 12.1094 16.3333Z" fill="#FAFAFA"/>
</svg>
