<svg width="33" height="33" viewBox="0 0 33 33" fill="none" xmlns="http://www.w3.org/2000/svg">
<circle cx="16.5" cy="16.5" r="16" stroke="#FAFAFA"/>
<path d="M16.5019 11.8557C14.0898 11.8557 12.1443 13.8663 12.1443 16.3589C12.1443 18.8516 14.0898 20.8622 16.5019 20.8622C18.9139 20.8622 20.8595 18.8516 20.8595 16.3589C20.8595 13.8663 18.9139 11.8557 16.5019 11.8557ZM16.5019 19.2866C14.9432 19.2866 13.6689 17.9737 13.6689 16.3589C13.6689 14.7442 14.9394 13.4312 16.5019 13.4312C18.0644 13.4312 19.3349 14.7442 19.3349 16.3589C19.3349 17.9737 18.0606 19.2866 16.5019 19.2866ZM22.0542 11.6714C22.0542 12.2554 21.5991 12.7218 21.0378 12.7218C20.4727 12.7218 20.0214 12.2515 20.0214 11.6714C20.0214 11.0914 20.4765 10.6211 21.0378 10.6211C21.5991 10.6211 22.0542 11.0914 22.0542 11.6714ZM24.9403 12.7375C24.8758 11.3305 24.5648 10.0841 23.5674 9.05728C22.5737 8.03043 21.3677 7.70904 20.0062 7.6385C18.603 7.55619 14.397 7.55619 12.9938 7.6385C11.6361 7.70512 10.4301 8.02651 9.43263 9.05336C8.43519 10.0802 8.128 11.3266 8.05973 12.7336C7.98009 14.1837 7.98009 18.5302 8.05973 19.9804C8.12421 21.3874 8.43519 22.6337 9.43263 23.6606C10.4301 24.6874 11.6323 25.0088 12.9938 25.0794C14.397 25.1617 18.603 25.1617 20.0062 25.0794C21.3677 25.0127 22.5737 24.6913 23.5674 23.6606C24.561 22.6337 24.872 21.3874 24.9403 19.9804C25.0199 18.5302 25.0199 14.1876 24.9403 12.7375ZM23.1274 21.5363C22.8316 22.3045 22.259 22.8963 21.5118 23.2059C20.393 23.6645 17.7383 23.5587 16.5019 23.5587C15.2655 23.5587 12.607 23.6606 11.492 23.2059C10.7486 22.9002 10.176 22.3084 9.87635 21.5363C9.43263 20.3801 9.53503 17.6366 9.53503 16.3589C9.53503 15.0812 9.43642 12.3338 9.87635 11.1815C10.1722 10.4134 10.7448 9.82154 11.492 9.51192C12.6108 9.05336 15.2655 9.15918 16.5019 9.15918C17.7383 9.15918 20.3968 9.05728 21.5118 9.51192C22.2552 9.81762 22.8278 10.4094 23.1274 11.1815C23.5712 12.3377 23.4688 15.0812 23.4688 16.3589C23.4688 17.6366 23.5712 20.384 23.1274 21.5363Z" fill="#FAFAFA"/>
</svg>
