<svg width="32" height="32" viewBox="0 0 32 32" fill="none" xmlns="http://www.w3.org/2000/svg">
<circle cx="16" cy="16" r="15.5" stroke="#FAFAFA"/>
<path d="M12.3576 23.0747H9.24777V12.7275H12.3576V23.0747ZM10.801 11.3161C9.80658 11.3161 9 10.465 9 9.4376C9 8.94407 9.18975 8.47076 9.5275 8.12179C9.86526 7.77282 10.3233 7.57677 10.801 7.57677C11.2787 7.57677 11.7368 7.77282 12.0745 8.12179C12.4123 8.47076 12.602 8.94407 12.602 9.4376C12.602 10.465 11.7951 11.3161 10.801 11.3161ZM23.9967 23.0747H20.8935V18.0378C20.8935 16.8373 20.8701 15.2979 19.2767 15.2979C17.6598 15.2979 17.4121 16.6021 17.4121 17.9513V23.0747H14.3056V12.7275H17.2882V14.139H17.3317C17.7469 13.326 18.761 12.4681 20.2741 12.4681C23.4214 12.4681 24 14.6095 24 17.3908V23.0747H23.9967Z" fill="#FAFAFA"/>
</svg>
