<svg width="48" height="48" viewBox="0 0 48 48" fill="none" xmlns="http://www.w3.org/2000/svg">
<path d="M44.4507 0.000335589H3.5493C3.08953 -0.00601141 2.633 0.0777285 2.20579 0.246773C1.77858 0.415818 1.38906 0.666856 1.05947 0.98555C0.729879 1.30425 0.466676 1.68435 0.28489 2.10417C0.103104 2.52398 0.00629793 2.97528 0 3.43229V44.5677C0.00629793 45.0247 0.103104 45.476 0.28489 45.8958C0.466676 46.3156 0.729879 46.6957 1.05947 47.0144C1.38906 47.3331 1.77858 47.5842 2.20579 47.7532C2.633 47.9223 3.08953 48.006 3.5493 47.9997H44.4507C44.9105 48.006 45.367 47.9223 45.7942 47.7532C46.2214 47.5842 46.6109 47.3331 46.9405 47.0144C47.2701 46.6957 47.5333 46.3156 47.7151 45.8958C47.8969 45.476 47.9937 45.0247 48 44.5677V3.43229C47.9937 2.97528 47.8969 2.52398 47.7151 2.10417C47.5333 1.68435 47.2701 1.30425 46.9405 0.98555C46.6109 0.666856 46.2214 0.415818 45.7942 0.246773C45.367 0.0777285 44.9105 -0.00601141 44.4507 0.000335589ZM14.5594 40.1758H7.3159V18.5761H14.5594V40.1758ZM10.9376 15.5521C9.93866 15.5521 8.98061 15.1577 8.27424 14.4555C7.56786 13.7534 7.17103 12.8011 7.17103 11.8082C7.17103 10.8152 7.56786 9.86293 8.27424 9.1608C8.98061 8.45867 9.93866 8.06422 10.9376 8.06422C11.4681 8.00443 12.0053 8.05667 12.514 8.21754C13.0227 8.37841 13.4915 8.64427 13.8897 8.99772C14.2879 9.35116 14.6065 9.78423 14.8246 10.2685C15.0428 10.7529 15.1555 11.2775 15.1555 11.8082C15.1555 12.3388 15.0428 12.8635 14.8246 13.3478C14.6065 13.8321 14.2879 14.2652 13.8897 14.6186C13.4915 14.9721 13.0227 15.2379 12.514 15.3988C12.0053 15.5597 11.4681 15.6119 10.9376 15.5521ZM40.6841 40.1758H33.4406V28.5839C33.4406 25.68 32.4024 23.784 29.7706 23.784C28.9561 23.7899 28.163 24.0439 27.4982 24.5116C26.8334 24.9793 26.3287 25.6384 26.0523 26.4C25.8634 26.9641 25.7815 27.5581 25.8109 28.1519V40.1518H18.5674C18.5674 40.1518 18.5674 20.52 18.5674 18.5521H25.8109V21.6C26.4689 20.4651 27.4259 19.5301 28.5789 18.8958C29.7319 18.2614 31.0372 17.9517 32.3541 18.0001C37.1831 18.0001 40.6841 21.096 40.6841 27.7439V40.1758Z" fill="white"/>
</svg>
