<svg width="12" height="15" viewBox="0 0 12 15" fill="none" xmlns="http://www.w3.org/2000/svg">
<path d="M6 0.88208C2.65714 0.88208 0 3.53922 0 6.88208C0 8.51065 0.6 10.0535 1.8 11.1678C1.88571 11.2535 5.31429 14.3392 5.4 14.4249C5.74286 14.6821 6.25714 14.6821 6.51429 14.4249C6.6 14.3392 10.1143 11.2535 10.1143 11.1678C11.3143 10.0535 11.9143 8.51065 11.9143 6.88208C12 3.53922 9.34286 0.88208 6 0.88208ZM6 8.59637C5.05714 8.59637 4.28571 7.82494 4.28571 6.88208C4.28571 5.93922 5.05714 5.16779 6 5.16779C6.94286 5.16779 7.71429 5.93922 7.71429 6.88208C7.71429 7.82494 6.94286 8.59637 6 8.59637Z" fill="#2B468B"/>
</svg>
