<svg width="28" height="35" viewBox="0 0 28 35" fill="none" xmlns="http://www.w3.org/2000/svg">
<path d="M12.5612 34.2938C1.96656 19.8947 0 18.4169 0 13.125C0 5.87624 6.26799 0 14 0C21.732 0 28 5.87624 28 13.125C28 18.4169 26.0334 19.8947 15.4388 34.2938C14.7435 35.2354 13.2564 35.2354 12.5612 34.2938ZM14 18.5937C17.2217 18.5937 19.8333 16.1453 19.8333 13.125C19.8333 10.1047 17.2217 7.65625 14 7.65625C10.7783 7.65625 8.16667 10.1047 8.16667 13.125C8.16667 16.1453 10.7783 18.5937 14 18.5937Z" fill="#252525"/>
</svg>
