<svg width="18" height="21" viewBox="0 0 18 21" fill="none" xmlns="http://www.w3.org/2000/svg">
<path d="M9.06321 0C4.01371 0 0 4.0624 0 9.17317C0 11.663 0.906321 14.0218 2.71896 15.7254C2.84844 15.8565 8.02742 20.5741 8.15689 20.7051C8.67479 21.0983 9.45164 21.0983 9.84006 20.7051C9.96953 20.5741 15.278 15.8565 15.278 15.7254C17.0906 14.0218 17.997 11.663 17.997 9.17317C18.1264 4.0624 14.1127 0 9.06321 0ZM9.06321 11.7941C7.63899 11.7941 6.47372 10.6147 6.47372 9.17317C6.47372 7.73167 7.63899 6.55226 9.06321 6.55226C10.4874 6.55226 11.6527 7.73167 11.6527 9.17317C11.6527 10.6147 10.4874 11.7941 9.06321 11.7941Z" fill="#2B468B"/>
</svg>
