<svg width="36" height="36" viewBox="0 0 36 36" fill="none" xmlns="http://www.w3.org/2000/svg">
<path d="M18 0C8.05645 0 0 8.05645 0 18C0 27.9435 8.05645 36 18 36C27.9435 36 36 27.9435 36 18C36 8.05645 27.9435 0 18 0ZM18 6.96774C21.5274 6.96774 24.3871 9.82742 24.3871 13.3548C24.3871 16.8823 21.5274 19.7419 18 19.7419C14.4726 19.7419 11.6129 16.8823 11.6129 13.3548C11.6129 9.82742 14.4726 6.96774 18 6.96774ZM18 31.9355C13.7395 31.9355 9.92177 30.0048 7.36694 26.9855C8.73145 24.4161 11.4024 22.6452 14.5161 22.6452C14.6903 22.6452 14.8645 22.6742 15.0315 22.725C15.975 23.0298 16.9621 23.2258 18 23.2258C19.0379 23.2258 20.0323 23.0298 20.9685 22.725C21.1355 22.6742 21.3097 22.6452 21.4839 22.6452C24.5976 22.6452 27.2685 24.4161 28.6331 26.9855C26.0782 30.0048 22.2605 31.9355 18 31.9355Z" fill="#252525"/>
</svg>
