<svg width="43" height="36" viewBox="0 0 43 36" fill="none" xmlns="http://www.w3.org/2000/svg">
<path d="M21.397 0C9.82448 0 0.448242 8.05645 0.448242 18C0.448242 27.9435 9.82448 36 21.397 36C32.9694 36 42.3457 27.9435 42.3457 18C42.3457 8.05645 32.9694 0 21.397 0ZM21.397 6.96774C25.5022 6.96774 28.8304 9.82742 28.8304 13.3548C28.8304 16.8823 25.5022 19.7419 21.397 19.7419C17.2917 19.7419 13.9635 16.8823 13.9635 13.3548C13.9635 9.82742 17.2917 6.96774 21.397 6.96774ZM21.397 31.9355C16.4385 31.9355 11.9954 30.0048 9.02201 26.9855C10.6101 24.4161 13.7186 22.6452 17.3424 22.6452C17.5451 22.6452 17.7478 22.6742 17.9421 22.725C19.0402 23.0298 20.189 23.2258 21.397 23.2258C22.6049 23.2258 23.7621 23.0298 24.8518 22.725C25.0461 22.6742 25.2488 22.6452 25.4516 22.6452C29.0753 22.6452 32.1839 24.4161 33.7719 26.9855C30.7985 30.0048 26.3554 31.9355 21.397 31.9355Z" fill="#252525"/>
</svg>
