<svg width="25" height="25" viewBox="0 0 25 25" fill="none" xmlns="http://www.w3.org/2000/svg">
<path d="M10.2665 15.2031L10.2666 15.203L10.2584 15.2005C10.1048 15.1538 9.93846 15.1252 9.76613 15.1252C8.807 15.1252 7.9035 15.3542 7.10423 15.7597C5.9927 16.3237 5.51761 17.3976 5.59063 18.4538C5.66282 19.4981 6.26701 20.5407 7.30996 21.1246C8.73125 21.9203 10.3689 22.3755 12.11 22.3755C13.8511 22.3755 15.4887 21.9203 16.91 21.1246C17.953 20.5407 18.5572 19.4981 18.6294 18.4538C18.7024 17.3976 18.2273 16.3237 17.1158 15.7597C16.3165 15.3542 15.413 15.1252 14.4539 15.1252C14.2815 15.1252 14.1152 15.1538 13.9616 15.2005L13.9616 15.2004L13.9524 15.2034C13.3612 15.3959 12.745 15.5158 12.11 15.5158C11.4754 15.5158 10.864 15.3961 10.2665 15.2031ZM0.5 12.5C0.5 6.08634 5.69634 0.889999 12.11 0.889999C18.5237 0.889999 23.72 6.08634 23.72 12.5C23.72 18.9137 18.5237 24.11 12.11 24.11C5.69634 24.11 0.5 18.9137 0.5 12.5ZM16.9071 9.37484C16.9071 6.72553 14.7593 4.57774 12.11 4.57774C9.46069 4.57774 7.3129 6.72553 7.3129 9.37484C7.3129 12.0241 9.46069 14.1719 12.11 14.1719C14.7593 14.1719 16.9071 12.0241 16.9071 9.37484Z" fill="#FAFAFA" stroke="#FAFAFA"/>
</svg>
