<svg width="23" height="23" viewBox="0 0 23 23" fill="none" xmlns="http://www.w3.org/2000/svg">
<path d="M0.335387 6.7108L10.7383 0.4738C10.9131 0.368893 11.1132 0.313477 11.3171 0.313477C11.521 0.313477 11.721 0.368893 11.8959 0.4738L22.2886 6.71192C22.372 6.76189 22.441 6.83261 22.4889 6.9172C22.5369 7.00178 22.562 7.09734 22.562 7.19455V21.5C22.562 21.7984 22.4435 22.0846 22.2325 22.2955C22.0215 22.5065 21.7354 22.625 21.437 22.625H1.18701C0.888643 22.625 0.602495 22.5065 0.391517 22.2955C0.180538 22.0846 0.0620117 21.7984 0.0620117 21.5V7.19342C0.0619913 7.09621 0.0871642 7.00066 0.135075 6.91607C0.182987 6.83149 0.252 6.76077 0.335387 6.7108ZM18.4513 8.27455L11.3806 14.3934L4.16489 8.2678L2.70914 9.9823L11.3941 17.3567L19.9228 9.97668L18.4513 8.27455Z" fill="#273F7D"/>
</svg>
