<svg width="20" height="24" viewBox="0 0 20 24" fill="none" xmlns="http://www.w3.org/2000/svg">
<path d="M16.6336 8H18.8355C19.1275 8 19.4075 8.11853 19.614 8.3295C19.8205 8.54048 19.9364 8.82663 19.9364 9.125V22.625C19.9364 22.9234 19.8205 23.2095 19.614 23.4205C19.4075 23.6315 19.1275 23.75 18.8355 23.75H1.2201C0.928109 23.75 0.648075 23.6315 0.441605 23.4205C0.235134 23.2095 0.119141 22.9234 0.119141 22.625V9.125C0.119141 8.82663 0.235134 8.54048 0.441605 8.3295C0.648075 8.11853 0.928109 8 1.2201 8H3.42202V6.875C3.42202 5.08479 4.11799 3.3679 5.35681 2.10203C6.59563 0.836159 8.27584 0.125 10.0278 0.125C11.7798 0.125 13.46 0.836159 14.6988 2.10203C15.9376 3.3679 16.6336 5.08479 16.6336 6.875V8ZM14.4316 8V6.875C14.4316 5.68153 13.9677 4.53693 13.1418 3.69302C12.3159 2.84911 11.1958 2.375 10.0278 2.375C8.85982 2.375 7.73969 2.84911 6.9138 3.69302C6.08792 4.53693 5.62395 5.68153 5.62395 6.875V8H14.4316ZM8.92683 14.75V17H11.1288V14.75H8.92683ZM4.52299 14.75V17H6.72491V14.75H4.52299ZM13.3307 14.75V17H15.5326V14.75H13.3307Z" fill="#273F7D"/>
</svg>
