<svg width="25" height="25" viewBox="0 0 25 25" fill="none" xmlns="http://www.w3.org/2000/svg">
<path d="M21.625 0H2.595C1.90676 0 1.24671 0.273401 0.760058 0.760058C0.273401 1.24671 0 1.90676 0 2.595L0 21.625C0 22.3132 0.273401 22.9733 0.760058 23.4599C1.24671 23.9466 1.90676 24.22 2.595 24.22H21.625C22.3132 24.22 22.9733 23.9466 23.4599 23.4599C23.9466 22.9733 24.22 22.3132 24.22 21.625V2.595C24.22 1.90676 23.9466 1.24671 23.4599 0.760058C22.9733 0.273401 22.3132 0 21.625 0ZM20.7389 16.6172L19.928 20.1313C19.8868 20.3099 19.7863 20.4693 19.6428 20.5835C19.4994 20.6977 19.3215 20.7599 19.1381 20.76C10.4881 20.76 3.46 13.7476 3.46 5.08187C3.46643 4.90025 3.53099 4.72549 3.64418 4.58331C3.75736 4.44112 3.91319 4.33902 4.08875 4.29202L7.60281 3.48108C7.66275 3.46841 7.72375 3.46135 7.785 3.46C7.94182 3.46792 8.09366 3.51766 8.22475 3.60408C8.35585 3.6905 8.46143 3.81043 8.53052 3.95143L10.1524 7.7358C10.1921 7.83784 10.2142 7.94588 10.2178 8.05531C10.2046 8.29537 10.0979 8.5207 9.92047 8.68298L7.87204 10.3589C9.11322 12.9896 11.2304 15.1068 13.8611 16.348L15.537 14.2995C15.6993 14.1221 15.9246 14.0154 16.1647 14.0022C16.2741 14.0057 16.3822 14.0278 16.4842 14.0676L20.2686 15.6895C20.4096 15.7585 20.5296 15.864 20.6161 15.9951C20.7025 16.1263 20.7522 16.2782 20.76 16.435C20.7589 16.4963 20.7519 16.5573 20.7389 16.6172Z" fill="#FAFAFA"/>
</svg>
