<svg width="164" height="23" viewBox="0 0 164 23" fill="none" xmlns="http://www.w3.org/2000/svg">
<path d="M7.60253 7.01515L7.86258 6.97724L7.97883 6.74154L10.8129 0.995205C11.139 0.334724 12.0809 0.336987 12.4078 0.995557C12.4078 0.995685 12.4079 0.995812 12.408 0.995939L15.2417 6.74154L15.3579 6.97724L15.618 7.01515L21.9591 7.93963L21.9595 7.93968C22.686 8.04505 22.9785 8.94246 22.4507 9.45642L22.4506 9.45655L17.8629 13.927L17.6745 14.1106L17.719 14.3698L18.8041 20.6846C18.9283 21.411 18.1619 21.9602 17.5157 21.6204L17.5156 21.6203L11.8429 18.6386L11.6103 18.5163L11.3776 18.6386L5.70488 21.6203L5.70331 21.6212C5.06056 21.9619 4.29166 21.414 4.41647 20.6846L5.50148 14.3698L5.54602 14.1106L5.35765 13.927L0.769978 9.45655L0.769836 9.45642C0.241992 8.94246 0.534522 8.04505 1.26102 7.93968L1.26139 7.93963L7.60253 7.01515Z" fill="#FFC700" stroke="#252525"/>
<path d="M42.6025 7.01515L42.8626 6.97724L42.9788 6.74154L45.8129 0.995205C46.139 0.334724 47.0809 0.336987 47.4078 0.995557C47.4078 0.995685 47.4079 0.995812 47.408 0.995939L50.2417 6.74154L50.3579 6.97724L50.618 7.01515L56.9591 7.93963L56.9595 7.93968C57.686 8.04505 57.9785 8.94246 57.4507 9.45642L57.4506 9.45655L52.8629 13.927L52.6745 14.1106L52.719 14.3698L53.8041 20.6846C53.9283 21.411 53.1619 21.9602 52.5157 21.6204L52.5156 21.6203L46.8429 18.6386L46.6103 18.5163L46.3776 18.6386L40.7049 21.6203L40.7033 21.6212C40.0606 21.9619 39.2917 21.414 39.4165 20.6846L40.5015 14.3698L40.546 14.1106L40.3577 13.927L35.77 9.45655L35.7698 9.45642C35.242 8.94246 35.5345 8.04505 36.261 7.93968L36.2614 7.93963L42.6025 7.01515Z" fill="#FFC700" stroke="#252525"/>
<path d="M77.6025 7.01515L77.8626 6.97724L77.9788 6.74154L80.8129 0.995205C81.139 0.334724 82.0809 0.336987 82.4078 0.995557C82.4078 0.995685 82.4079 0.995812 82.408 0.995939L85.2417 6.74154L85.3579 6.97724L85.618 7.01515L91.9591 7.93963L91.9595 7.93968C92.686 8.04505 92.9785 8.94246 92.4507 9.45642L92.4506 9.45655L87.8629 13.927L87.6745 14.1106L87.719 14.3698L88.8041 20.6846C88.9283 21.411 88.1619 21.9602 87.5157 21.6204L87.5156 21.6203L81.8429 18.6386L81.6103 18.5163L81.3776 18.6386L75.7049 21.6203L75.7033 21.6212C75.0606 21.9619 74.2917 21.414 74.4165 20.6846L75.5015 14.3698L75.546 14.1106L75.3577 13.927L70.77 9.45655L70.7698 9.45642C70.242 8.94246 70.5345 8.04505 71.261 7.93968L71.2614 7.93963L77.6025 7.01515Z" fill="#FFC700" stroke="#252525"/>
<path d="M112.603 7.01515L112.863 6.97724L112.979 6.74154L115.813 0.995205C116.139 0.334724 117.081 0.336987 117.408 0.995557C117.408 0.995685 117.408 0.995812 117.408 0.995939L120.242 6.74154L120.358 6.97724L120.618 7.01515L126.959 7.93963L126.96 7.93968C127.686 8.04505 127.979 8.94246 127.451 9.45642L127.451 9.45655L122.863 13.927L122.675 14.1106L122.719 14.3698L123.804 20.6846C123.928 21.411 123.162 21.9602 122.516 21.6204L122.516 21.6203L116.843 18.6386L116.61 18.5163L116.378 18.6386L110.705 21.6203L110.703 21.6212C110.061 21.9619 109.292 21.414 109.416 20.6846L110.501 14.3698L110.546 14.1106L110.358 13.927L105.77 9.45655L105.77 9.45642C105.242 8.94246 105.535 8.04505 106.261 7.93968L106.261 7.93963L112.603 7.01515Z" fill="#FFC700" stroke="#252525"/>
<mask id="path-5-inside-1_263_1132" fill="white">
<path d="M151.61 -0.000117165C151.115 -8.0958e-05 150.621 0.256032 150.365 0.772543L147.531 6.51928L141.19 7.43988C140.053 7.60489 139.597 9.00684 140.422 9.80973L145.01 14.2799L143.925 20.5951C143.73 21.7279 144.924 22.5915 145.939 22.0576L151.612 19.0797L151.61 -0.000117165Z"/>
</mask>
<path d="M151.61 -0.000117165C151.115 -8.0958e-05 150.621 0.256032 150.365 0.772543L147.531 6.51928L141.19 7.43988C140.053 7.60489 139.597 9.00684 140.422 9.80973L145.01 14.2799L143.925 20.5951C143.73 21.7279 144.924 22.5915 145.939 22.0576L151.612 19.0797L151.61 -0.000117165Z" fill="#FFC700"/>
<path d="M151.61 -0.000117165L152.61 -0.00019034L152.61 -1.00019L151.61 -1.00012L151.61 -0.000117165ZM150.365 0.772543L149.469 0.328408L149.468 0.330279L150.365 0.772543ZM147.531 6.51928L147.675 7.5089L148.195 7.43333L148.428 6.96154L147.531 6.51928ZM141.19 7.43988L141.333 8.42952L141.333 8.42951L141.19 7.43988ZM140.422 9.80973L141.12 9.09348L141.119 9.09321L140.422 9.80973ZM145.01 14.2799L145.995 14.4491L146.084 13.9307L145.708 13.5636L145.01 14.2799ZM143.925 20.5951L144.911 20.7649L144.911 20.7643L143.925 20.5951ZM145.939 22.0576L145.474 21.1722L145.474 21.1725L145.939 22.0576ZM151.612 19.0797L152.076 19.9652L152.612 19.6842L152.612 19.0797L151.612 19.0797ZM151.61 -1.00012C150.77 -1.00006 149.908 -0.558207 149.469 0.328409L151.261 1.21668C151.301 1.13424 151.354 1.08483 151.407 1.05338C151.464 1.01978 151.534 0.999888 151.61 0.999883L151.61 -1.00012ZM149.468 0.330279L146.634 6.07701L148.428 6.96154L151.262 1.21481L149.468 0.330279ZM147.387 5.52965L141.046 6.45026L141.333 8.42951L147.675 7.5089L147.387 5.52965ZM141.046 6.45025C139.088 6.73444 138.306 9.14541 139.724 10.5263L141.119 9.09321C140.888 8.86827 141.018 8.47535 141.333 8.42952L141.046 6.45025ZM139.724 10.526L144.312 14.9961L145.708 13.5636L141.12 9.09348L139.724 10.526ZM144.024 14.1106L142.94 20.4258L144.911 20.7643L145.995 14.4491L144.024 14.1106ZM142.94 20.4252C142.603 22.379 144.658 23.8607 146.404 22.9427L145.474 21.1725C145.189 21.3223 144.857 21.0768 144.911 20.7649L142.94 20.4252ZM146.404 22.943L152.076 19.9652L151.147 18.1943L145.474 21.1722L146.404 22.943ZM152.612 19.0797L152.61 -0.00019034L150.61 -4.39892e-05L150.612 19.0798L152.612 19.0797Z" fill="#252525" mask="url(#path-5-inside-1_263_1132)"/>
<mask id="path-7-inside-2_263_1132" fill="white">
<path d="M152 0.000732422C152.495 0.000732422 152.99 0.256809 153.246 0.773302L156.08 6.51983L162.421 7.43997C163.558 7.6049 164.014 9.00681 163.189 9.80976L158.602 14.2802L159.687 20.5954C159.882 21.7282 158.688 22.5919 157.673 22.058L152 19.0806V0.000732422Z"/>
</mask>
<path d="M152 0.000732422C152.495 0.000732422 152.99 0.256809 153.246 0.773302L156.08 6.51983L162.421 7.43997C163.558 7.6049 164.014 9.00681 163.189 9.80976L158.602 14.2802L159.687 20.5954C159.882 21.7282 158.688 22.5919 157.673 22.058L152 19.0806V0.000732422Z" fill="#FAFAFA"/>
<path d="M152 0.000732422H151V-0.999268H152V0.000732422ZM153.246 0.773302L154.142 0.329101L154.143 0.330972L153.246 0.773302ZM156.08 6.51983L155.936 7.50946L155.416 7.43393L155.183 6.96216L156.08 6.51983ZM162.421 7.43997L162.278 8.42961L162.277 8.4296L162.421 7.43997ZM163.189 9.80976L162.491 9.09356L162.492 9.09329L163.189 9.80976ZM158.602 14.2802L157.616 14.4496L157.527 13.9312L157.904 13.5641L158.602 14.2802ZM159.687 20.5954L158.701 20.7653L158.701 20.7647L159.687 20.5954ZM157.673 22.058L158.138 21.1726L158.138 21.1729L157.673 22.058ZM152 19.0806L151.535 19.966L151 19.6851V19.0806H152ZM152 -0.999268C152.841 -0.999268 153.702 -0.557482 154.142 0.329102L152.35 1.2175C152.309 1.13507 152.257 1.08566 152.204 1.05422C152.147 1.02062 152.076 1.00073 152 1.00073V-0.999268ZM154.143 0.330972L156.977 6.0775L155.183 6.96216L152.349 1.21563L154.143 0.330972ZM156.224 5.53019L162.565 6.45033L162.277 8.4296L155.936 7.50946L156.224 5.53019ZM162.565 6.45032C164.523 6.73437 165.305 9.14528 163.887 10.5262L162.492 9.09329C162.723 8.86833 162.593 8.47542 162.278 8.42961L162.565 6.45032ZM163.887 10.526L159.3 14.9964L157.904 13.5641L162.491 9.09356L163.887 10.526ZM159.587 14.1109L160.672 20.426L158.701 20.7647L157.616 14.4496L159.587 14.1109ZM160.672 20.4254C161.009 22.3792 158.954 23.8611 157.208 22.9432L158.138 21.1729C158.423 21.3227 158.755 21.0771 158.701 20.7653L160.672 20.4254ZM157.208 22.9435L151.535 19.966L152.465 18.1951L158.138 21.1726L157.208 22.9435ZM151 19.0806V0.000732422H153V19.0806H151Z" fill="#252525" mask="url(#path-7-inside-2_263_1132)"/>
</svg>
