<svg width="18" height="20" viewBox="0 0 18 20" fill="none" xmlns="http://www.w3.org/2000/svg">
<path d="M8.07456 1.11151L5.90289 5.9127L1.04407 6.6851C0.172737 6.8229 -0.17646 7.99419 0.45542 8.66505L3.97067 12.4001L3.13925 17.6763C2.98959 18.6301 3.91081 19.3444 4.68236 18.8984L9.02903 16.4071L13.3757 18.8984C14.1473 19.3408 15.0685 18.6301 14.9188 17.6763L14.0874 12.4001L17.6026 8.66505C18.2345 7.99419 17.8853 6.8229 17.014 6.6851L12.1552 5.9127L9.98351 1.11151C9.5944 0.255712 8.46699 0.244833 8.07456 1.11151Z" fill="#FFC700"/>
<path fill-rule="evenodd" clip-rule="evenodd" d="M4.68236 18.8984L9.02903 16.4071L13.3757 18.8984C14.1473 19.3408 15.0685 18.6301 14.9188 17.6763L14.0874 12.4001L17.6026 8.66505C18.2345 7.99419 17.8853 6.8229 17.014 6.6851L12.1552 5.9127L9.9835 1.11151C9.5944 0.255712 8.46699 0.244833 8.07456 1.11151L5.90289 5.9127L1.04407 6.6851C0.172737 6.8229 -0.17646 7.99419 0.45542 8.66505L3.97067 12.4001L3.13925 17.6763C2.98959 18.6301 3.91081 19.3444 4.68236 18.8984ZM8.98222 1.52506C8.99366 1.49989 9.0043 1.48528 9.01042 1.47811C9.01661 1.47086 9.02077 1.46799 9.02211 1.46713C9.02429 1.46572 9.02533 1.46557 9.02672 1.46558C9.02831 1.46558 9.03122 1.46591 9.03567 1.46879C9.03802 1.47031 9.04275 1.47379 9.04915 1.48127C9.05541 1.48859 9.06542 1.5023 9.07617 1.52578C9.07607 1.52555 9.07628 1.52601 9.07617 1.52578L11.4691 6.81612L16.858 7.67277L16.8591 7.67296C16.8646 7.67382 16.8662 7.67408 16.8729 7.6805C16.8837 7.69088 16.9035 7.71671 16.9168 7.76124C16.9455 7.85768 16.9189 7.93484 16.878 7.97828L13.0262 12.0709L13.934 17.8318C13.934 17.8317 13.9341 17.832 13.934 17.8318C13.9434 17.8919 13.9346 17.9333 13.9239 17.9601C13.912 17.9899 13.8943 18.0109 13.8787 18.0231C13.8751 18.026 13.8719 18.0281 13.8694 18.0296L9.02903 15.2554L4.1878 18.0301C4.18567 18.0288 4.18286 18.0272 4.1801 18.0251C4.16444 18.0127 4.14647 17.9915 4.13437 17.9611C4.12345 17.9337 4.1146 17.8923 4.12395 17.8323C4.12393 17.8324 4.12397 17.8321 4.12395 17.8323L5.03182 12.0709L1.18031 7.97856C1.1394 7.93513 1.11258 7.85768 1.14128 7.76124C1.15453 7.71671 1.17433 7.69088 1.18514 7.6805C1.19182 7.67408 1.19345 7.67382 1.19893 7.67296L6.58897 6.81612L8.98222 1.52506Z" fill="#252525"/>
</svg>
