<svg width="32" height="32" viewBox="0 0 32 32" fill="none" xmlns="http://www.w3.org/2000/svg">
<circle cx="16" cy="16" r="15.5" stroke="#FAFAFA"/>
<path d="M25.603 10.8732C25.3845 9.98233 24.7406 9.28072 23.9232 9.04262C22.4415 8.60995 16.5 8.60995 16.5 8.60995C16.5 8.60995 10.5586 8.60995 9.07682 9.04262C8.25936 9.28076 7.61554 9.98233 7.39702 10.8732C7 12.4879 7 15.8569 7 15.8569C7 15.8569 7 19.2259 7.39702 20.8407C7.61554 21.7315 8.25936 22.4039 9.07682 22.642C10.5586 23.0747 16.5 23.0747 16.5 23.0747C16.5 23.0747 22.4414 23.0747 23.9232 22.642C24.7406 22.4039 25.3845 21.7315 25.603 20.8407C26 19.2259 26 15.8569 26 15.8569C26 15.8569 26 12.4879 25.603 10.8732ZM14.5568 18.9157V12.7981L19.5227 15.857L14.5568 18.9157Z" fill="#FAFAFA"/>
</svg>
